<svg version="1.1" xmlns="http://www.w3.org/2000/svg" width="64" height="64">
    <path d="M 8 38
        q -1 -2 1 0
        t 4 0
        t 0 3
        t -6 4
        t -6 -8
        t 3 -12
        t 12 -8
        t 12 -12
        t 2 1
        t -12 13
        t -11 11
        t 2 0
        t 12 -11
        t 12 -12
        t 2 0
        t -12 14
        t -15 17"
    />
    <path d="M 34 54
        q -3 -3 0 -8
        t 8 -14
        t 0 -22
        t 3 0
        t -1 25
        t -10 19"
    />
    <path d="M 38 58
        q -3 -3 0 -8
        t 10 -14
        t 6 -18
        t 3 0
        t -6 20
        t -13 20"
    />
    <path d="M 42 62
        q -3 -3 0 -8
        t 6 -8
        t 6 -6
        t 6 -12
        t 3 0
        t -6 14
        t -10 11
        t -5 9"
    />
    <path d="M 47 64
        q -2 -2 0 -6
        t 8 -10
        t 7 -8
        t 1 3
        t -6 10
        t -10 11
        "
    />
</svg>
